<?xml version="1.0" encoding="UTF-8" standalone="no"?>
<!-- Generator: Adobe Illustrator 19.0.0, SVG Export Plug-In . SVG Version: 6.00 Build 0)  -->

<svg
   xmlns:dc="http://purl.org/dc/elements/1.1/"
   xmlns:cc="http://creativecommons.org/ns#"
   xmlns:rdf="http://www.w3.org/1999/02/22-rdf-syntax-ns#"
   xmlns:svg="http://www.w3.org/2000/svg"
   xmlns="http://www.w3.org/2000/svg"
   xmlns:sodipodi="http://sodipodi.sourceforge.net/DTD/sodipodi-0.dtd"
   xmlns:inkscape="http://www.inkscape.org/namespaces/inkscape"
   version="1.1"
   id="Layer_1"
   x="0px"
   y="0px"
   viewBox="0 0 234.925 258.75"
   xml:space="preserve"
   sodipodi:docname="user.svg"
   width="234.925"
   height="258.75"
   inkscape:version="0.92.4 5da689c313, 2019-01-14"
   inkscape:export-filename="/home/jdb/proj/public-people-project/public-people/publicpeople/static/images/user.png"
   inkscape:export-xdpi="66.040581"
   inkscape:export-ydpi="66.040581"><metadata
   id="metadata953"><rdf:RDF><cc:Work
       rdf:about=""><dc:format>image/svg+xml</dc:format><dc:type
         rdf:resource="http://purl.org/dc/dcmitype/StillImage" /><dc:title></dc:title></cc:Work></rdf:RDF></metadata><defs
   id="defs951" /><sodipodi:namedview
   pagecolor="#ffffff"
   bordercolor="#666666"
   borderopacity="1"
   objecttolerance="10"
   gridtolerance="10"
   guidetolerance="10"
   inkscape:pageopacity="0"
   inkscape:pageshadow="2"
   inkscape:window-width="1916"
   inkscape:window-height="1041"
   id="namedview949"
   showgrid="false"
   inkscape:zoom="3.2695652"
   inkscape:cx="129.375"
   inkscape:cy="68.204787"
   inkscape:window-x="0"
   inkscape:window-y="18"
   inkscape:window-maximized="0"
   inkscape:current-layer="Layer_1" />

<g
   id="g918"
   transform="translate(-12.305851)">
</g>
<g
   id="g920"
   transform="translate(-12.305851)">
</g>
<g
   id="g922"
   transform="translate(-12.305851)">
</g>
<g
   id="g924"
   transform="translate(-12.305851)">
</g>
<g
   id="g926"
   transform="translate(-12.305851)">
</g>
<g
   id="g928"
   transform="translate(-12.305851)">
</g>
<g
   id="g930"
   transform="translate(-12.305851)">
</g>
<g
   id="g932"
   transform="translate(-12.305851)">
</g>
<g
   id="g934"
   transform="translate(-12.305851)">
</g>
<g
   id="g936"
   transform="translate(-12.305851)">
</g>
<g
   id="g938"
   transform="translate(-12.305851)">
</g>
<g
   id="g940"
   transform="translate(-12.305851)">
</g>
<g
   id="g942"
   transform="translate(-12.305851)">
</g>
<g
   id="g944"
   transform="translate(-12.305851)">
</g>
<g
   id="g946"
   transform="translate(-12.305851)">
</g>
<path
   style="fill:#999999;fill-opacity:1;stroke:#999999;stroke-width:0.52879703;stroke-miterlimit:4;stroke-dasharray:none;stroke-opacity:1"
   d="M 112.25206,119.6668 C 89.142219,117.77713 69.325283,100.80378 63.795309,78.163262 56.457172,48.119854 75.573309,17.871407 105.86323,11.59704 c 24.41357,-5.0571208 48.89551,6.858027 60.17107,29.284744 3.53387,7.02874 5.32659,14.141549 5.62535,22.319108 0.69536,19.033573 -8.40861,36.757375 -24.42686,47.554708 -7.48788,5.0473 -16.51366,8.14533 -26.0216,8.93168 -3.76218,0.31116 -4.93618,0.30848 -8.95913,-0.0205 z"
   id="path955"
   inkscape:connector-curvature="0" /><path
   style="fill:#999999;fill-opacity:1;stroke:#999999;stroke-width:0.56458527;stroke-miterlimit:4;stroke-dasharray:none;stroke-opacity:1"
   d="m 13.489034,254.91783 c 1.105603,-21.30011 6.665065,-39.4476 17.12487,-55.89988 4.043732,-6.36041 7.318986,-10.60667 12.357678,-16.02131 12.619032,-13.56056 27.931408,-23.26132 44.953987,-28.4794 8.95032,-2.74362 16.510571,-3.94472 26.396091,-4.19355 7.57811,-0.19075 12.1727,0.0864 18.72627,1.12959 29.11089,4.63382 55.32248,22.6395 71.46636,49.09279 9.64619,15.80619 15.33209,34.65953 15.93649,52.84231 l 0.17032,5.12364 H 116.96179 13.302474 Z"
   id="path957"
   inkscape:connector-curvature="0" /><rect
   style="fill:none;fill-opacity:1;stroke:#999999;stroke-width:1.87327683;stroke-miterlimit:4;stroke-dasharray:none;stroke-opacity:1"
   id="rect959"
   width="233.05157"
   height="256.90576"
   x="1.1539538"
   y="0.92211688" /></svg>